<svg xmlns="http://www.w3.org/2000/svg" xmlns:xlink="http://www.w3.org/1999/xlink" version="1.1" x="0px" y="0px" viewBox="0 0 32 40" enable-background="new 0 0 32 32" xml:space="preserve"><g display="none"><rect x="-251.594" y="-89.636" display="inline" fill="#000000" width="408.792" height="199.646"/></g><g display="none"><g display="inline"><polygon fill="#000000" points="3.193,12.814 3.947,15.248 6.386,15.248 4.413,16.752 5.167,19.186 3.193,17.681 1.22,19.186     1.974,16.752 0,15.248 2.439,15.248   "/><polygon fill="#000000" points="9.597,12.814 10.35,15.248 12.79,15.248 10.816,16.752 11.57,19.186 9.597,17.681 7.623,19.186     8.377,16.752 6.403,15.248 8.843,15.248   "/><polygon fill="#000000" points="16,12.814 16.754,15.248 19.193,15.248 17.22,16.752 17.974,19.186 16,17.681 14.026,19.186     14.78,16.752 12.807,15.248 15.246,15.248   "/><polygon fill="#000000" points="22.403,12.814 23.157,15.248 25.597,15.248 23.623,16.752 24.377,19.186 22.403,17.681     20.43,19.186 21.184,16.752 19.21,15.248 21.65,15.248   "/><polygon fill="#000000" points="28.807,12.814 29.561,15.248 32,15.248 30.026,16.752 30.78,19.186 28.807,17.681 26.833,19.186     27.587,16.752 25.614,15.248 28.053,15.248   "/></g></g><g><polygon points="3.193,12.814 3.947,15.248 6.386,15.248 4.413,16.752 5.167,19.186 3.193,17.681 1.22,19.186 1.974,16.752    0,15.248 2.439,15.248  "/><polygon points="9.597,12.814 10.35,15.248 12.79,15.248 10.816,16.752 11.57,19.186 9.597,17.681 7.623,19.186 8.377,16.752    6.403,15.248 8.843,15.248  "/><polygon points="16,12.814 16.754,15.248 19.193,15.248 17.22,16.752 17.974,19.186 16,17.681 14.026,19.186 14.78,16.752    12.807,15.248 15.246,15.248  "/><polygon points="22.403,12.814 23.157,15.248 25.597,15.248 23.623,16.752 24.377,19.186 22.403,17.681 20.43,19.186    21.184,16.752 19.21,15.248 21.65,15.248  "/><polygon points="28.807,12.814 29.561,15.248 32,15.248 30.026,16.752 30.78,19.186 28.807,17.681 26.833,19.186 27.587,16.752    25.614,15.248 28.053,15.248  "/></g><text x="0" y="47" fill="#000000" font-size="5px" font-weight="bold" font-family="'Helvetica Neue', Helvetica, Arial-Unicode, Arial, Sans-serif">Created by Icons By Alfredo</text><text x="0" y="52" fill="#000000" font-size="5px" font-weight="bold" font-family="'Helvetica Neue', Helvetica, Arial-Unicode, Arial, Sans-serif">from the Noun Project</text></svg>